<svg width="516" height="508" viewBox="0 0 516 508" fill="none" xmlns="http://www.w3.org/2000/svg">
<g opacity="0.05">
<path d="M346.886 198.031H392.969C414.142 198.031 430.956 193.672 442.788 183.708C454.62 174.367 460.848 160.667 460.848 142.607C460.848 125.171 454.62 111.47 442.788 101.507C430.956 92.1655 414.142 87.1836 392.969 87.1836H346.886V198.031ZM346.886 285.215V435.918H241.643V0H392.969C447.77 0 489.494 13.0776 518.763 37.9871C547.409 62.8968 562.354 97.7702 562.354 142.607C562.354 187.445 547.409 222.941 518.763 247.851C489.494 272.76 447.77 285.215 392.969 285.215H346.886Z" fill="url(#paint0_linear_714_1982)"/>
<path d="M105.243 269.901H151.326C172.499 269.901 189.313 265.542 201.145 255.578C212.977 246.237 219.204 232.537 219.204 214.477C219.204 197.04 212.977 183.34 201.145 173.376C189.313 164.035 172.499 159.053 151.326 159.053H105.243V269.901ZM105.243 357.085V507.788H0V71.8696H151.326C206.127 71.8696 247.851 84.9472 277.119 109.857C305.765 134.766 320.711 169.64 320.711 214.477C320.711 259.314 305.765 294.811 277.119 319.72C247.851 344.63 206.127 357.085 151.326 357.085H105.243Z" fill="url(#paint1_linear_714_1982)"/>
</g>
<defs>
<linearGradient id="paint0_linear_714_1982" x1="312.165" y1="204.881" x2="573.335" y2="205.323" gradientUnits="userSpaceOnUse">
<stop stop-color="white"/>
<stop offset="1" stop-color="#A8A8A8"/>
</linearGradient>
<linearGradient id="paint1_linear_714_1982" x1="70.5213" y1="276.751" x2="331.692" y2="277.193" gradientUnits="userSpaceOnUse">
<stop stop-color="white"/>
<stop offset="1" stop-color="#A8A8A8"/>
</linearGradient>
</defs>
</svg>
