<svg xmlns="http://www.w3.org/2000/svg" version="1.1" xmlns:xlink="http://www.w3.org/1999/xlink" width="1000" height="1000"><g clip-path="url(#SvgjsClipPath1108)"><rect width="1000" height="1000" fill="#603b84"></rect><g transform="matrix(6.930693069306931,0,0,6.930693069306931,177.7227722772277,150)"><svg xmlns="http://www.w3.org/2000/svg" version="1.1" xmlns:xlink="http://www.w3.org/1999/xlink" width="93" height="101"><svg width="93" height="101" viewBox="0 0 93 101" fill="none" xmlns="http://www.w3.org/2000/svg">
<path d="M92.1332 51.9331C92.0497 60.0616 88.4498 65.7901 82.7421 70.2874C77.6709 74.2943 71.8902 77.2577 66.339 80.5237C61.3826 83.4558 56.2801 86.1583 51.2715 88.9965C45.1152 92.4921 39.0736 96.1546 32.625 99.212C30.2146 100.36 27.6373 101.028 25.0182 99.9945C22.107 98.8467 20.9801 96.3738 20.6044 93.4625C20.2467 91.1959 20.1069 88.9003 20.1871 86.607C20.2601 85.5114 20.0305 85.2088 18.9245 85.887C16.832 87.3212 14.5628 88.4786 12.1733 89.3304C6.20478 91.1669 2.68834 88.0783 1.53011 82.6523C0.549263 78.0298 0.632739 73.3343 0.632739 68.6492C0.632739 52.6217 0.559698 36.5839 0.705781 20.546C0.59973 15.0854 2.45027 9.76692 5.92305 5.55156C9.68991 1.12732 14.6359 -0.239608 20.2914 0.542983C27.1052 1.49253 32.8128 5.08201 38.6353 8.31671C50.1759 14.6922 61.4243 21.5686 72.7875 28.2467C77.9005 31.2414 83.0134 34.2778 86.8742 38.9525C90.1193 42.8968 92.1853 47.2897 92.1332 51.9331ZM8.81341 49.794C9.19949 58.9138 8.22908 69.484 9.2934 80.0541C9.44992 81.5672 9.77339 81.8071 11.1716 81.0976C14.0933 79.6472 16.7124 77.7272 19.5192 76.016C19.9181 75.8126 20.2485 75.4964 20.4692 75.1069C20.69 74.7173 20.7914 74.2715 20.761 73.8247C20.761 61.0529 20.5836 48.281 21.0949 35.5196C21.1236 33.9405 21.3054 32.368 21.6375 30.824C22.6287 26.5876 25.9156 24.4589 30.0999 25.398C31.5062 25.6871 32.8629 26.1792 34.1276 26.8589C36.5588 28.1945 39.0214 29.4571 41.4318 30.8449C48.3464 34.8517 55.2123 39.0256 62.0295 43.3663C64.0126 44.529 65.6261 46.2293 66.6833 48.2705C67.1446 49.1115 67.3968 50.0511 67.4185 51.01C67.4403 51.9689 67.2311 52.9189 66.8086 53.78C65.517 56.1827 63.6445 58.2238 61.3617 59.7172C55.6853 63.7867 49.5081 67.1153 43.4978 70.59C38.7188 73.3865 33.9085 76.1412 29.3381 79.282C29.0651 79.4177 28.836 79.6278 28.6772 79.8881C28.5184 80.1485 28.4365 80.4484 28.4408 80.7533C28.4408 83.9567 28.3782 87.1705 28.3886 90.3739C28.3886 92.2521 28.4825 92.3147 30.2251 91.4174C36.2875 88.5061 42.037 85.0106 47.9012 81.7341C56.6662 76.8647 65.3338 71.8074 73.904 66.5623C77.1861 64.772 79.9941 62.2252 82.0952 59.1329C83.2821 57.4094 83.9705 55.3919 84.0846 53.3023C84.1988 51.2128 83.7342 49.1322 82.7421 47.2897C81.1909 44.3078 78.8801 41.7882 76.0431 39.9855C67.3929 34.2674 58.3044 29.2588 49.4038 23.9476C44.1865 20.8173 38.8544 17.8434 33.5537 14.8279C29.2547 12.334 25.0182 9.63146 20.0723 8.68192C16.6393 8.01411 13.9159 8.23323 11.9125 11.0088C9.8528 13.8584 8.75616 17.2909 8.78211 20.8069C8.74037 29.9684 8.81341 39.1612 8.81341 49.794ZM28.9729 52.6739H28.8477V68.1588C28.8477 69.6405 28.9625 69.7135 30.2564 68.9622C36.6423 65.2371 43.0491 61.512 49.3933 57.7242C52.279 56.0871 55.0663 54.2823 57.7409 52.3191C58.9514 51.38 58.9305 51.1296 57.6783 50.2322C57.0523 49.794 56.4262 49.3662 55.7688 48.9697C50.6246 45.8393 45.4699 42.8446 40.3466 39.7351C37.2162 37.8256 33.9919 35.9891 30.7155 34.2778C29.7347 33.7665 29.359 33.9335 29.2964 35.0396C29.2338 36.1456 29.0042 37.2308 28.9938 38.316C28.9103 43.1159 28.9208 47.8845 28.9208 52.6739H28.9729Z" fill="url(#paint0_linear_970_43)"></path>
<defs>
<linearGradient id="paint0_linear_970_43" x1="-5.88839" y1="0.254594" x2="92.0716" y2="102.889" gradientUnits="userSpaceOnUse">
<stop stop-color="#0385FF"></stop>
<stop offset="1" stop-color="#06F1BA"></stop>
</linearGradient>
<clipPath id="SvgjsClipPath1108"><rect width="1000" height="1000" x="0" y="0" rx="300" ry="300"></rect></clipPath></defs>
</svg></svg></g></g></svg>