<svg width="141" height="141" viewBox="0 0 141 141" fill="none" xmlns="http://www.w3.org/2000/svg">
<rect width="141" height="141" rx="24.0797" fill="url(#paint0_linear_925_42)"/>
<path d="M116.133 71.9331C116.05 80.0616 112.45 85.7901 106.742 90.2874C101.671 94.2943 95.8902 97.2577 90.339 100.524C85.3826 103.456 80.2801 106.158 75.2715 108.997C69.1152 112.492 63.0736 116.155 56.625 119.212C54.2146 120.36 51.6373 121.028 49.0182 119.995C46.107 118.847 44.9801 116.374 44.6044 113.463C44.2467 111.196 44.1069 108.9 44.1871 106.607C44.2601 105.511 44.0305 105.209 42.9245 105.887C40.832 107.321 38.5628 108.479 36.1733 109.33C30.2048 111.167 26.6883 108.078 25.5301 102.652C24.5493 98.0298 24.6327 93.3343 24.6327 88.6492C24.6327 72.6217 24.5597 56.5839 24.7058 40.546C24.5997 35.0854 26.4503 29.7669 29.923 25.5516C33.6899 21.1273 38.6359 19.7604 44.2914 20.543C51.1052 21.4925 56.8128 25.082 62.6353 28.3167C74.1759 34.6922 85.4243 41.5686 96.7875 48.2467C101.9 51.2414 107.013 54.2778 110.874 58.9525C114.119 62.8968 116.185 67.2897 116.133 71.9331ZM32.8134 69.794C33.1995 78.9138 32.2291 89.484 33.2934 100.054C33.4499 101.567 33.7734 101.807 35.1716 101.098C38.0933 99.6472 40.7124 97.7272 43.5192 96.016C43.9181 95.8126 44.2485 95.4964 44.4692 95.1069C44.69 94.7173 44.7914 94.2715 44.761 93.8247C44.761 81.0529 44.5836 68.281 45.0949 55.5196C45.1236 53.9405 45.3054 52.368 45.6375 50.824C46.6287 46.5876 49.9156 44.4589 54.0999 45.398C55.5062 45.6871 56.8629 46.1792 58.1276 46.8589C60.5588 48.1945 63.0214 49.4571 65.4318 50.8449C72.3464 54.8517 79.2123 59.0256 86.0295 63.3663C88.0126 64.529 89.6261 66.2293 90.6833 68.2705C91.1446 69.1115 91.3968 70.0511 91.4185 71.01C91.4403 71.9689 91.2311 72.9189 90.8086 73.78C89.517 76.1827 87.6445 78.2238 85.3617 79.7172C79.6853 83.7867 73.5081 87.1153 67.4978 90.59C62.7188 93.3865 57.9085 96.1412 53.3381 99.282C53.0651 99.4177 52.836 99.6278 52.6772 99.8881C52.5184 100.148 52.4365 100.448 52.4408 100.753C52.4408 103.957 52.3782 107.17 52.3886 110.374C52.3886 112.252 52.4825 112.315 54.2251 111.417C60.2875 108.506 66.037 105.011 71.9012 101.734C80.6662 96.8647 89.3338 91.8074 97.904 86.5623C101.186 84.772 103.994 82.2252 106.095 79.1329C107.282 77.4094 107.97 75.3919 108.085 73.3023C108.199 71.2128 107.734 69.1322 106.742 67.2897C105.191 64.3078 102.88 61.7882 100.043 59.9855C91.3929 54.2674 82.3044 49.2588 73.4038 43.9476C68.1865 40.8173 62.8544 37.8434 57.5537 34.8279C53.2547 32.334 49.0182 29.6315 44.0723 28.6819C40.6393 28.0141 37.9159 28.2332 35.9125 31.0088C33.8528 33.8584 32.7562 37.2909 32.7821 40.8069C32.7404 49.9684 32.8134 59.1612 32.8134 69.794ZM52.9729 72.6739H52.8477V88.1588C52.8477 89.6405 52.9625 89.7135 54.2564 88.9622C60.6423 85.2371 67.0491 81.512 73.3933 77.7242C76.279 76.0871 79.0663 74.2823 81.7409 72.3191C82.9514 71.38 82.9305 71.1296 81.6783 70.2322C81.0523 69.794 80.4262 69.3662 79.7688 68.9697C74.6246 65.8393 69.4699 62.8446 64.3466 59.7351C61.2162 57.8256 57.9919 55.9891 54.7155 54.2778C53.7347 53.7665 53.359 53.9335 53.2964 55.0396C53.2338 56.1456 53.0042 57.2308 52.9938 58.316C52.9103 63.1159 52.9208 67.8845 52.9208 72.6739H52.9729Z" fill="url(#paint1_linear_925_42)"/>
<defs>
<linearGradient id="paint0_linear_925_42" x1="-24.6148" y1="-67.2894" x2="211.768" y2="263.673" gradientUnits="userSpaceOnUse">
<stop stop-color="#8E24AA"/>
<stop offset="0.567308"/>
</linearGradient>
<linearGradient id="paint1_linear_925_42" x1="18.1116" y1="20.2546" x2="116.072" y2="122.889" gradientUnits="userSpaceOnUse">
<stop stop-color="#0385FF"/>
<stop offset="1" stop-color="#06F1BA"/>
</linearGradient>
</defs>
</svg>
